<svg width="1200" height="760" viewBox="0 0 1200 760" fill="none" xmlns="http://www.w3.org/2000/svg" role="img" aria-labelledby="title desc">
  <title id="title">Pethood app preview</title>
  <desc id="desc">Premium marketplace app placeholder for pet stays, host discovery, and booking flows.</desc>
  <rect width="1200" height="760" fill="#101827"/>
  <rect x="92" y="92" width="1016" height="576" rx="40" fill="#FAFAFA"/>
  <rect x="132" y="132" width="380" height="496" rx="34" fill="#FFFFFF" stroke="#E5E7EB"/>
  <rect x="172" y="178" width="190" height="18" rx="9" fill="#0F172A"/>
  <rect x="172" y="224" width="270" height="13" rx="6.5" fill="#94A3B8"/>
  <rect x="172" y="278" width="296" height="150" rx="30" fill="#E0F2FE"/>
  <circle cx="248" cy="354" r="48" fill="#2563EB" opacity="0.9"/>
  <circle cx="312" cy="328" r="24" fill="#7C3AED" opacity="0.88"/>
  <circle cx="354" cy="376" r="28" fill="#14B8A6" opacity="0.86"/>
  <rect x="172" y="466" width="296" height="54" rx="18" fill="#F1F5F9"/>
  <rect x="172" y="544" width="214" height="54" rx="18" fill="#DBEAFE"/>
  <rect x="568" y="132" width="500" height="496" rx="42" fill="#0F172A"/>
  <rect x="622" y="190" width="232" height="24" rx="12" fill="#FFFFFF"/>
  <rect x="622" y="246" width="330" height="14" rx="7" fill="#94A3B8"/>
  <rect x="622" y="306" width="390" height="74" rx="22" fill="#1F2937"/>
  <rect x="622" y="406" width="390" height="74" rx="22" fill="#1F2937"/>
  <rect x="622" y="506" width="232" height="54" rx="18" fill="#2563EB"/>
  <text x="172" y="604" fill="#2563EB" font-family="Inter, Arial, sans-serif" font-size="28" font-weight="700">Pethood</text>
</svg>
