<svg width="1200" height="760" viewBox="0 0 1200 760" fill="none" xmlns="http://www.w3.org/2000/svg" role="img" aria-labelledby="title desc">
  <title id="title">Polygon iOT app preview</title>
  <desc id="desc">Premium IoT app placeholder showing connected device status and monitoring cards.</desc>
  <rect width="1200" height="760" fill="#07111F"/>
  <path d="M0 520C210 420 330 620 536 508C734 400 846 228 1200 290V760H0V520Z" fill="#13243A"/>
  <rect x="92" y="92" width="1016" height="576" rx="40" fill="#F8FAFC"/>
  <rect x="140" y="142" width="372" height="476" rx="34" fill="#FFFFFF" stroke="#E2E8F0"/>
  <rect x="176" y="184" width="188" height="18" rx="9" fill="#0F172A"/>
  <rect x="176" y="234" width="264" height="264" rx="132" fill="#DBEAFE"/>
  <circle cx="308" cy="366" r="74" fill="#2563EB"/>
  <circle cx="308" cy="366" r="24" fill="#FFFFFF"/>
  <rect x="176" y="536" width="272" height="46" rx="16" fill="#EFF6FF"/>
  <rect x="570" y="142" width="490" height="220" rx="32" fill="#0F172A"/>
  <rect x="618" y="190" width="186" height="18" rx="9" fill="#FFFFFF"/>
  <rect x="618" y="244" width="354" height="16" rx="8" fill="#64748B"/>
  <rect x="618" y="292" width="304" height="18" rx="9" fill="#60A5FA"/>
  <rect x="570" y="398" width="232" height="220" rx="32" fill="#EEF2FF"/>
  <rect x="828" y="398" width="232" height="220" rx="32" fill="#ECFDF5"/>
  <path d="M654 516C722 440 844 570 938 482" stroke="#2563EB" stroke-width="12" stroke-linecap="round"/>
  <text x="618" y="586" fill="#2563EB" font-family="Inter, Arial, sans-serif" font-size="28" font-weight="700">Polygon iOT</text>
</svg>
